<svg version="1.1" id="Layer_1" xmlns="http://www.w3.org/2000/svg" xmlns:xlink="http://www.w3.org/1999/xlink" x="0px" y="0px"
	 width="100%" viewBox="0 0 512 512" enable-background="new 0 0 512 512" xml:space="preserve">
<path fill="#35C5F0" opacity="1.000000" stroke="none" 
	d="
M336.000000,513.000000 
	C224.027206,513.000000 112.554405,513.000000 1.040803,513.000000 
	C1.040803,342.402191 1.040803,171.804352 1.040803,1.103257 
	C171.556137,1.103257 342.112366,1.103257 512.834290,1.103257 
	C512.834290,171.666534 512.834290,342.333252 512.834290,513.000000 
	C454.137665,513.000000 395.318817,513.000000 336.000000,513.000000 
M320.500000,409.001495 
	C336.162720,409.001495 351.825439,409.004791 367.488159,409.000671 
	C389.325684,408.994934 401.678314,396.752350 401.704041,375.031860 
	C401.730896,352.370819 401.799774,329.708984 401.624512,307.049286 
	C401.594727,303.197845 402.709381,301.301331 406.315582,299.547119 
	C441.833862,282.269501 457.861847,241.172211 443.871094,203.896255 
	C430.296631,167.729568 390.331604,147.493729 352.791962,157.982437 
	C349.139709,159.002884 346.626282,158.295120 343.691376,156.231705 
	C319.028687,138.892456 294.276062,121.681000 269.537689,104.449478 
	C255.168488,94.440598 243.447525,94.436577 229.030838,104.482742 
	C190.220154,131.527664 151.494019,158.694656 112.584976,185.597214 
	C101.937851,192.958878 96.881386,202.539536 96.924438,215.500107 
	C97.101562,268.819702 96.993042,322.140228 97.001236,375.460419 
	C97.004486,396.630493 109.372635,408.996307 130.546600,408.998810 
	C193.531067,409.006195 256.515533,409.001465 320.500000,409.001495 
z"/>
<path fill="#FEFFFF" opacity="1.000000" stroke="none" 
	d="
M320.000000,409.001495 
	C256.515533,409.001465 193.531067,409.006195 130.546600,408.998810 
	C109.372635,408.996307 97.004486,396.630493 97.001236,375.460419 
	C96.993042,322.140228 97.101562,268.819702 96.924438,215.500107 
	C96.881386,202.539536 101.937851,192.958878 112.584976,185.597214 
	C151.494019,158.694656 190.220154,131.527664 229.030838,104.482742 
	C243.447525,94.436577 255.168488,94.440598 269.537689,104.449478 
	C294.276062,121.681000 319.028687,138.892456 343.691376,156.231705 
	C346.626282,158.295120 349.139709,159.002884 352.791962,157.982437 
	C390.331604,147.493729 430.296631,167.729568 443.871094,203.896255 
	C457.861847,241.172211 441.833862,282.269501 406.315582,299.547119 
	C402.709381,301.301331 401.594727,303.197845 401.624512,307.049286 
	C401.799774,329.708984 401.730896,352.370819 401.704041,375.031860 
	C401.678314,396.752350 389.325684,408.994934 367.488159,409.000671 
	C351.825439,409.004791 336.162720,409.001495 320.000000,409.001495 
M304.657410,195.116104 
	C287.476715,183.079666 270.236786,171.126144 253.171082,158.928818 
	C250.168289,156.782623 248.210449,157.015488 245.336227,159.034805 
	C215.363480,180.092438 185.330505,201.065231 155.195786,221.890167 
	C152.055832,224.060074 150.990097,226.310577 151.002670,230.047485 
	C151.136063,269.689423 151.085403,309.332001 151.085403,348.974396 
	C151.085403,350.756470 151.085403,352.538544 151.085403,354.594055 
	C216.701279,354.594055 281.722809,354.594055 347.390533,354.594055 
	C347.390533,352.502838 347.390564,350.720795 347.390533,348.938721 
	C347.390503,335.446991 347.251160,321.952881 347.478363,308.464996 
	C347.543427,304.602051 346.393768,302.752899 342.746704,301.046143 
	C313.714142,287.459137 298.259766,264.611359 296.822693,232.442673 
	C296.243286,219.472107 300.078339,207.515335 304.657410,195.116104 
M338.896301,231.475601 
	C339.575958,251.173874 354.198212,265.453064 373.440704,265.209625 
	C391.993378,264.974854 406.901367,249.873123 406.924561,231.290558 
	C406.947540,212.873077 391.968079,197.598160 373.465668,197.171768 
	C354.885345,196.743561 339.702118,211.406738 338.896301,231.475601 
z"/>
<path fill="#36C5F0" opacity="1.000000" stroke="none" 
	d="
M304.824890,195.450317 
	C300.078339,207.515335 296.243286,219.472107 296.822693,232.442673 
	C298.259766,264.611359 313.714142,287.459137 342.746704,301.046143 
	C346.393768,302.752899 347.543427,304.602051 347.478363,308.464996 
	C347.251160,321.952881 347.390503,335.446991 347.390533,348.938721 
	C347.390564,350.720795 347.390533,352.502838 347.390533,354.594055 
	C281.722809,354.594055 216.701279,354.594055 151.085403,354.594055 
	C151.085403,352.538544 151.085403,350.756470 151.085403,348.974396 
	C151.085403,309.332001 151.136063,269.689423 151.002670,230.047485 
	C150.990097,226.310577 152.055832,224.060074 155.195786,221.890167 
	C185.330505,201.065231 215.363480,180.092438 245.336227,159.034805 
	C248.210449,157.015488 250.168289,156.782623 253.171082,158.928818 
	C270.236786,171.126144 287.476715,183.079666 304.824890,195.450317 
z"/>
<path fill="#36C5F0" opacity="1.000000" stroke="none" 
	d="
M338.897583,231.015137 
	C339.702118,211.406738 354.885345,196.743561 373.465668,197.171768 
	C391.968079,197.598160 406.947540,212.873077 406.924561,231.290558 
	C406.901367,249.873123 391.993378,264.974854 373.440704,265.209625 
	C354.198212,265.453064 339.575958,251.173874 338.897583,231.015137 
z"/>
</svg>